# xmcd
#
# Track frame offsets:
#   150
#   15257
#   27296
#   39867
#   50830
#   62813
#   75828
#   88176
#   104913
#   117813
#   133201
#   144765
#
# Disc length: 2077 seconds
#
# Revision: 0
# Processed by: cddbd v1.4PL0 Copyright (c) Steve Scherf et al.
# Submitted via: uFREEDB ActiveX Control 1.5
#
DISCID=97081b0c
DTITLE=Hot coutry hits - Hot coutry hits
DYEAR=1900
DGENRE=Country
TTITLE0=Hot coutry hits 01
TTITLE1=Hot coutry hits 02
TTITLE2=Hot coutry hits 03
TTITLE3=Hot coutry hits 04
TTITLE4=Hot coutry hits 05
TTITLE5=Hot coutry hits 06
TTITLE6=Hot coutry hits 07
TTITLE7=Hot coutry hits 08
TTITLE8=Hot coutry hits 09
TTITLE9=Hot coutry hits 10
TTITLE10=Hot coutry hits 11
TTITLE11=Hot coutry hits 12
EXTD=
EXTT0=
EXTT1=
EXTT2=
EXTT3=
EXTT4=
EXTT5=
EXTT6=
EXTT7=
EXTT8=
EXTT9=
EXTT10=
EXTT11=
PLAYORDER=
